<svg width="20" height="20" fill="none" xmlns="http://www.w3.org/2000/svg"><path d="M10 10c.459 0 .85-.163 1.177-.49.327-.326.49-.718.49-1.177 0-.458-.163-.85-.49-1.177A1.605 1.605 0 0 0 10 6.666c-.458 0-.85.164-1.177.49-.326.327-.49.719-.49 1.177 0 .459.164.851.49 1.177.326.327.719.49 1.177.49Zm0 6.125c1.695-1.556 2.952-2.969 3.771-4.24.82-1.27 1.23-2.399 1.23-3.385 0-1.514-.483-2.754-1.449-3.719-.965-.965-2.15-1.448-3.552-1.448-1.403 0-2.587.483-3.552 1.448C5.483 5.746 5 6.986 5 8.5c0 .986.41 2.114 1.23 3.385.819 1.271 2.076 2.684 3.77 4.24Zm0 2.208c-2.236-1.902-3.906-3.67-5.01-5.302C3.886 11.4 3.333 9.89 3.333 8.5c0-2.083.67-3.743 2.01-4.98C6.685 2.286 8.237 1.668 10 1.668c1.764 0 3.316.618 4.656 1.854 1.34 1.236 2.01 2.896 2.01 4.979 0 1.389-.551 2.9-1.655 4.531-1.105 1.632-2.775 3.4-5.01 5.302Z" fill="#C00000"/></svg>