<svg width="87" height="32" fill="none" xmlns="http://www.w3.org/2000/svg"><path d="M66.93 3.587c1.47.368 2.414 1.235 2.71 2.732.053.268.077.546.077.82.005 5.092.004 10.184.004 15.277v.143h-2.67v-3.827h-3.253v3.825h-2.685v-3.842c-.547 0-1.08-.037-1.606.011-.515.047-.856-.12-1.15-.544-.325-.472-.723-.894-1.118-1.371h3.866v-.33c0-3.074-.002-6.149.001-9.224.002-1.672.792-2.9 2.263-3.452.443-.166.924-.298 1.393-.316.713-.029 1.43.056 2.167.098Zm-3.135 12.28v.919h3.245v-.22c0-3.11 0-6.218-.002-9.328 0-.203-.014-.41-.044-.61-.094-.621-.352-.951-.932-1.042a4.707 4.707 0 0 0-1.293-.01c-.509.063-.817.407-.905.915-.045.26-.066.53-.066.794-.005 2.843-.003 5.685-.003 8.582ZM79.956 3.957h2.013v18.6h-2.663v-.292c0-2.542.003-5.084-.007-7.626a.788.788 0 0 0-.153-.452c-.936-1.196-1.886-2.382-2.832-3.57l-.152-.188v12.13h-2.704V3.024l5.837 7.654V3.957h.66ZM38.56 5.6V3.968h2.72v15.16c0 .196.002.392.022.586.071.69.444 1.131 1.128 1.218.396.05.82.027 1.211-.054.582-.122.916-.576.971-1.19.015-.16.014-.32.014-.48V3.972h2.655v.28c0 4.977-.03 9.955.013 14.932.02 2.319-1.42 3.513-3.29 3.787-1.011.149-2.02.125-3.003-.197-1.595-.523-2.44-1.713-2.44-3.442-.003-4.568-.001-9.137-.001-13.732ZM34.22 22.57c-.572-.054-1.126-.073-1.665-.17-1.39-.25-2.05-.97-2.218-2.37a7.879 7.879 0 0 1-.06-.93c-.004-4.975-.003-9.95-.003-14.926v-.2h2.72v.284c0 4.869-.002 9.738.002 14.606 0 .381.03.763.059 1.143.021.285.177.458.471.48.38.027.761.064 1.142.068.852.01 1.705.004 2.557.004h.297v2.011h-3.301Z" fill="#000"/><path d="M52.777 11.107c-.75 3.429.15 6.357 2.56 8.845.881.91 1.87 1.69 2.915 2.4l.324.221h-.297c-1.137 0-2.274.003-3.411-.003a.52.52 0 0 1-.313-.097c-1.908-1.625-3.408-3.55-4.17-5.966-1.066-3.384-.516-6.54 1.47-9.459.76-1.116 1.679-2.09 2.693-2.976.062-.054.15-.11.226-.11 1.24-.008 2.481-.006 3.798-.006-.128.094-.2.149-.275.2-1.37.937-2.629 1.998-3.666 3.305-.86 1.084-1.5 2.28-1.854 3.646Z" fill="#000"/><path d="M46.054 23.987h37.969v.95H28.808v-.95h17.246ZM10.225 25.01c-.41.02-.805.082-1.186.039-.58-.066-1.019-.426-1.324-.901a8.505 8.505 0 0 1-.728-1.384c-1.258-3.096-2.497-6.2-3.742-9.302-.006-.015-.006-.033-.012-.074l2.33-.937c.044.096.087.179.122.265l3.375 8.418c.032.082.066.165.104.245.551 1.187 1.499 1.572 2.714 1.094.973-.383 1.942-.778 2.913-1.167.08-.032.162-.06.261-.097l.69 1.72c-.038.026-.064.048-.094.06-1.324.532-2.645 1.074-3.976 1.588-.461.178-.949.289-1.447.433ZM15.399 9.49c.592-.236 1.165-.467 1.737-.697l.03.052-.202.132c-1.069.7-1.906 1.594-2.296 2.84-.527 1.684.065 3.504 1.516 4.67 1.291 1.039 2.797 1.369 4.416 1.301.168-.007.335-.022.515.006l-.355.142c-.847.34-1.71.65-2.537 1.031-.664.306-1.327.31-1.999.144-2.084-.516-3.283-1.93-3.796-3.94-.445-1.746-.115-3.348 1.15-4.697.264-.281.558-.512.937-.632.295-.094.577-.228.884-.351Z" fill="#A60303"/><path d="M25.438 6.438c.898 2.239 1.79 4.458 2.69 6.704l-.664.273c-.052-.09-.101-.171-.147-.254-1.022-1.866-2.042-3.733-3.067-5.597-.14-.256-.299-.503-.459-.748-.575-.883-1.384-1.194-2.392-.92-1.3.353-2.591.737-3.886 1.108l-.272.077-.289-.714 1.307-.527c1.325-.53 2.646-1.066 3.976-1.583.32-.125.66-.198.998-.269.589-.123 1.048.101 1.37.593.154.235.277.494.391.753.157.356.292.723.444 1.104ZM9.237 7.053c-.226.127-.44.236-.64.366-.71.459-.917 1.117-.739 1.92.054.24.116.48.177.731l-.264.12c-.284-.772-.594-1.526-.834-2.302-.161-.52.015-.835.531-1.072.556-.254 1.13-.47 1.697-.698 1.454-.586 2.91-1.17 4.387-1.764l.173.4-4.488 2.3ZM67.703 27.622l.002-1.462c0-.016.01-.032.015-.054.508 0 1.019-.023 1.526.008.354.021.553.228.57.486.017.25-.151.43-.5.533-.041.013-.085.018-.113.024l.872.855c-.347.086-.553.043-.694-.197-.036-.06-.098-.104-.138-.162-.285-.416-.682-.53-1.181-.426v.815h-.359v-.42Zm.87-.636c.176-.008.354-.002.528-.026.187-.026.35-.117.347-.333-.002-.204-.158-.299-.337-.307-.348-.015-.698-.004-1.042-.004v.67h.504ZM65.898 27.093h.856c0 .218.008.428-.005.636-.004.054-.062.128-.114.152-.56.26-1.136.327-1.717.073-.386-.168-.595-.466-.589-.895.006-.425.213-.73.596-.895.421-.181.867-.213 1.292-.035.196.082.352.258.583.434-.148.046-.195.064-.244.076-.042.01-.086.015-.127.023a1.025 1.025 0 0 0-1.337-.308c-.295.161-.415.425-.405.752.01.322.154.56.456.688.392.166.787.136 1.15-.058.096-.051.112-.253.179-.42h-.776c-.138-.254.04-.221.202-.223ZM39.66 27.147v-1.088c.496.023.982.014 1.458.078.46.062.718.43.722.911.004.49-.26.88-.721.945-.47.066-.95.06-1.459.087v-.933Zm.717-.853h-.353v1.522c.299 0 .589.014.877-.004.302-.019.474-.212.549-.495.158-.604-.159-1.018-.783-1.023h-.29ZM46.675 27c.035.829-.774 1.217-1.532 1.084-.687-.12-1.041-.552-.97-1.165.041-.35.235-.59.542-.736a1.57 1.57 0 0 1 1.385-.008c.34.156.538.424.575.825Zm-.637.695c.285-.243.328-.55.236-.893-.09-.335-.342-.488-.654-.543-.358-.064-.704-.008-.938.298a.815.815 0 0 0-.076.905c.18.345.511.457.878.424.177-.016.349-.108.554-.19ZM55.307 26.379c.5-.414 1.048-.446 1.61-.232.393.15.625.457.633.896.008.435-.2.745-.59.924a1.54 1.54 0 0 1-1.335 0c-.637-.295-.783-1.016-.318-1.588Zm.96 1.514c.043 0 .088.003.132 0 .496-.05.793-.363.791-.83-.002-.463-.317-.787-.799-.822-.533-.039-.904.215-.984.675-.095.539.2.892.86.977ZM63.501 27.264c-.18.915-1.527 1.056-2.12.572-.24-.197-.379-.439-.374-.757.005-.45.227-.783.647-.943a1.66 1.66 0 0 1 1.119-.033c.533.17.788.566.728 1.161Zm-.4.144c.02-.086.049-.172.056-.26.042-.5-.28-.868-.791-.907-.565-.044-.949.245-1 .75-.042.414.162.722.562.852.461.15.916-.006 1.174-.435ZM31.366 26.089c.373-.094.72-.094 1.063.038.211.081.361.217.397.468-.173.035-.295.043-.408-.154-.153-.266-.887-.276-1.096-.047-.131.143-.087.325.121.388.227.07.465.1.697.15.13.029.26.054.385.095.207.067.364.191.377.429.014.241-.115.409-.323.505-.46.213-.926.206-1.385-.001a.606.606 0 0 1-.374-.53h.309c.2.442.875.633 1.282.346.075-.054.155-.178.143-.257-.014-.093-.108-.218-.196-.247-.232-.078-.48-.108-.72-.165-.145-.034-.31-.048-.426-.13-.124-.089-.276-.245-.276-.373-.001-.142.148-.29.246-.425.032-.044.108-.057.184-.09ZM76.66 27.978 76.66 26.1h.347v.814h1.375v-.821h.338v1.95h-.33v-.883h-1.365v.912a1.833 1.833 0 0 1-.364-.093ZM53.196 27.148h-.858v.887h-.347V26.09h.342v.831h1.365v-.827h.34v1.945h-.323v-.892h-.52ZM38.3 27.294V26.09h.338c0 .457.016.909-.005 1.358-.014.292-.186.529-.477.567a4.274 4.274 0 0 1-1.069.01c-.303-.037-.475-.28-.487-.585-.018-.442-.005-.885-.005-1.344h.336c0 .352-.002.712 0 1.073.004.64.581.968 1.13.617.127-.081.16-.308.238-.492ZM49.733 26.08c.31.011.595.003.875.041.32.045.504.258.507.525a.535.535 0 0 1-.483.548c-.374.055-.755.06-1.159.087v.756h-.36V26.08h.62Zm-.23.956c.293-.004.587.008.878-.018.205-.018.378-.114.367-.369-.012-.25-.186-.337-.393-.349-.29-.017-.582-.004-.889-.004 0 .248 0 .477.038.74ZM73.727 26.304c.042-.092.083-.216.125-.216.45-.003.903-.009 1.35.03.34.03.533.248.539.52.007.286-.18.516-.524.564-.364.051-.735.052-1.125.076v.763h-.365v-1.737Zm1.257.727c.22-.05.415-.123.389-.407-.02-.214-.183-.325-.493-.33-.26-.003-.522 0-.776 0v.743c.288 0 .56 0 .88-.006ZM71.023 27.167c.172-.332.33-.65.495-.962.093-.176.395-.187.49-.015.326.588.645 1.181.965 1.774.01.02.006.05.008.07-.263.086-.427-.006-.498-.267-.07-.257-.236-.347-.494-.302a.855.855 0 0 1-.292 0c-.359-.066-.592.064-.68.422-.064.255-.258.144-.44.169.153-.306.294-.589.446-.889Zm.997-.322-.252-.51-.43.898h.875l-.193-.388ZM80.874 26.762c.177-.194.338-.407.537-.576.105-.089.277-.1.418-.145l.039.068c-.26.283-.51.575-.784.845-.178.175-.263.36-.234.61.017.155.003.314.003.48h-.328c-.013-.026-.029-.043-.026-.056.133-.636-.196-1.073-.621-1.474-.127-.12-.233-.26-.357-.401.25-.089.43-.026.572.18.074.109.17.203.278.33l.33.388.173-.248ZM34.758 28.053c-.169.023-.225-.022-.221-.181.01-.514.004-1.028.004-1.57h-.851v-.21h2.04c.015.194.015.198-.142.2-.222.004-.443.001-.704.001 0 .519.004 1.029-.005 1.538 0 .075-.062.148-.121.222ZM58.532 26.08h1.764c.056.128.072.219-.116.215-.23-.006-.46-.002-.711-.002v1.745h-.348v-1.733h-.851l-.017-.225h.28ZM42.886 26.56v-.465h.332v1.943h-.332V26.56Z" fill="#000"/></svg>