<svg width="87" height="32" viewBox="0 0 87 32" fill="none" xmlns="http://www.w3.org/2000/svg">
<path d="M66.9292 3.58646C68.3996 3.95529 69.3436 4.82153 69.6399 6.31844C69.6931 6.58676 69.7169 6.86523 69.7172 7.13905C69.7218 12.2312 69.7208 17.3234 69.721 22.4155C69.721 22.4585 69.721 22.5015 69.721 22.5589C68.8304 22.5589 67.9552 22.5589 67.0504 22.5589C67.0504 21.2953 67.0504 20.0219 67.0504 18.732C65.9529 18.732 64.8847 18.732 63.7976 18.732C63.7976 20.0058 63.7976 21.2727 63.7976 22.5566C62.8964 22.5566 62.014 22.5566 61.1132 22.5566C61.1132 21.2829 61.1132 20.0149 61.1132 18.7154C60.5656 18.7154 60.0322 18.678 59.5065 18.726C58.9919 18.7729 58.6509 18.6064 58.3575 18.1818C58.0315 17.7101 57.6336 17.2883 57.2389 16.8107C58.5405 16.8107 59.803 16.8107 61.1052 16.8107C61.1052 16.6852 61.1052 16.5835 61.1052 16.4819C61.1052 13.407 61.1032 10.3321 61.1061 7.2573C61.1077 5.58479 61.8981 4.35688 63.3689 3.8054C63.8124 3.63912 64.293 3.50719 64.7617 3.4886C65.4747 3.46031 66.1921 3.54458 66.9292 3.58646ZM63.7951 15.8665C63.7951 16.1734 63.7951 16.4802 63.7951 16.7858C64.8924 16.7858 65.9538 16.7858 67.0398 16.7858C67.0398 16.7037 67.0398 16.6348 67.0398 16.5659C67.0397 13.4566 67.0404 10.3474 67.0377 7.23811C67.0375 7.03446 67.0241 6.82881 66.9938 6.62756C66.9004 6.00645 66.642 5.67667 66.0618 5.5858C65.6398 5.51969 65.1944 5.52279 64.7695 5.5755C64.2601 5.63868 63.952 5.98246 63.8644 6.49081C63.8194 6.75174 63.7984 7.01997 63.798 7.28494C63.7934 10.1277 63.7951 12.9705 63.7951 15.8665Z" fill="white"/>
<path d="M79.9558 3.95644C80.6383 3.95644 81.2943 3.95644 81.9685 3.95644C81.9685 10.1617 81.9685 16.3512 81.9685 22.5571C81.0922 22.5571 80.2107 22.5571 79.3059 22.5571C79.3059 22.4557 79.3059 22.3603 79.3059 22.2649C79.3059 19.7228 79.3086 17.1808 79.2993 14.6387C79.2988 14.4865 79.2393 14.3061 79.1459 14.1869C78.2095 12.9911 77.2602 11.8053 76.3145 10.6168C76.2778 10.5707 76.2403 10.5254 76.1621 10.4294C76.1621 14.5087 76.1621 18.5269 76.1621 22.5593C75.2491 22.5593 74.3638 22.5593 73.4585 22.5593C73.4585 16.0694 73.4585 9.5715 73.4585 3.02441C75.4066 5.57903 77.3302 8.10168 79.2945 10.6776C79.2945 8.4066 79.2945 6.19609 79.2945 3.95644C79.5261 3.95644 79.7278 3.95644 79.9558 3.95644Z" fill="white"/>
<path d="M38.5598 5.59989C38.5598 5.04217 38.5598 4.51111 38.5598 3.96826C39.4724 3.96826 40.3577 3.96826 41.2792 3.96826C41.2792 4.06999 41.2792 4.17325 41.2792 4.27651C41.2792 9.22715 41.2789 14.1778 41.28 19.1284C41.28 19.3237 41.2824 19.52 41.3023 19.7139C41.373 20.4041 41.746 20.8449 42.4296 20.9322C42.8261 20.9828 43.2493 20.9592 43.6414 20.8775C44.2229 20.7563 44.5573 20.3014 44.6125 19.6872C44.6267 19.5283 44.6259 19.3676 44.6259 19.2077C44.6266 14.2304 44.6265 9.25314 44.6266 4.27584C44.6266 4.17992 44.6266 4.084 44.6266 3.9722C45.5132 3.9722 46.379 3.9722 47.2814 3.9722C47.2814 4.06493 47.2814 4.15848 47.2814 4.25202C47.2813 9.22932 47.2518 14.2069 47.2943 19.1838C47.3142 21.5029 45.8749 22.6969 44.0041 22.9712C42.9928 23.1195 41.9832 23.0956 41.0005 22.7738C39.4055 22.2514 38.5614 21.0605 38.5605 19.3319C38.5584 14.7635 38.5598 10.195 38.5598 5.59989Z" fill="white"/>
<path d="M34.2209 22.5703C33.6476 22.5157 33.0944 22.4971 32.5554 22.4C31.1649 22.1494 30.5046 21.4295 30.3372 20.0297C30.3003 19.7217 30.2775 19.41 30.2773 19.1C30.2735 14.1247 30.2744 9.14948 30.2743 4.1742C30.2743 4.1129 30.2743 4.0516 30.2743 3.97339C31.179 3.97339 32.0706 3.97339 32.9931 3.97339C32.9931 4.06974 32.9931 4.16407 32.9931 4.25841C32.9931 9.12707 32.9917 13.9957 32.9956 18.8644C32.9959 19.2453 33.0266 19.6267 33.055 20.007C33.0762 20.2924 33.2317 20.4656 33.5265 20.4866C33.9067 20.5137 34.2872 20.5508 34.6678 20.5554C35.5201 20.5658 36.3726 20.5587 37.2251 20.5587C37.321 20.5587 37.417 20.5587 37.5223 20.5587C37.5223 21.2384 37.5223 21.8924 37.5223 22.5705C36.4251 22.5705 35.3363 22.5705 34.2209 22.5703Z" fill="white"/>
<path d="M52.7771 11.107C52.0262 14.5356 52.9271 17.4637 55.3371 19.952C56.2184 20.8619 57.207 21.642 58.2524 22.3528C58.3375 22.4107 58.4226 22.4686 58.5764 22.5733C58.4268 22.5733 58.3528 22.5732 58.2788 22.5733C57.1419 22.5734 56.0049 22.5761 54.868 22.5695C54.7625 22.5689 54.6325 22.5387 54.5555 22.4732C52.6471 20.8479 51.1465 18.9228 50.3854 16.5067C49.3195 13.1231 49.8686 9.96716 51.8553 7.04808C52.6148 5.93224 53.5339 4.95865 54.5477 4.07244C54.6096 4.01832 54.6976 3.96163 54.7738 3.96121C56.0145 3.95432 57.2551 3.95633 58.5718 3.95633C58.4436 4.04966 58.372 4.10469 58.2975 4.15562C56.9271 5.0931 55.668 6.15424 54.6306 7.46132C53.7708 8.54476 53.1319 9.74155 52.7771 11.107Z" fill="white"/>
<path d="M46.054 23.9871C58.7214 23.9871 71.3621 23.9871 84.0228 23.9871C84.0228 24.3077 84.0228 24.6124 84.0228 24.9366C65.6238 24.9366 47.2232 24.9366 28.8079 24.9366C28.8079 24.6254 28.8079 24.3196 28.8079 23.9871C34.5547 23.9871 40.291 23.9871 46.054 23.9871Z" fill="#A60303"/>
<path d="M10.2254 25.0104C9.81428 25.0291 9.42042 25.0924 9.03864 25.0491C8.45811 24.9832 8.02021 24.6231 7.71481 24.1477C7.43401 23.7105 7.18248 23.2451 6.98704 22.7641C5.72894 19.6678 4.48978 16.5638 3.24486 13.4621C3.23873 13.4468 3.2392 13.4288 3.23279 13.3879C3.999 13.0798 4.77001 12.7699 5.56266 12.4512C5.60684 12.5468 5.64986 12.63 5.68457 12.7166C6.80997 15.5223 7.93453 18.3284 9.05951 21.1343C9.0925 21.2166 9.12629 21.2987 9.16365 21.3791C9.71536 22.5658 10.6629 22.951 11.8781 22.4726C12.8512 22.0896 13.8198 21.695 14.7906 21.3062C14.8711 21.2739 14.9533 21.2459 15.0522 21.2095C15.2849 21.7893 15.5116 22.3541 15.7425 22.9295C15.7037 22.9545 15.678 22.9775 15.648 22.9895C14.3236 23.5212 13.0029 24.0627 11.6718 24.577C11.2106 24.7552 10.7234 24.8658 10.2254 25.0104Z" fill="#A60303"/>
<path d="M15.399 9.49044C15.9909 9.25347 16.5635 9.02322 17.136 8.79297C17.1459 8.81045 17.1558 8.82793 17.1657 8.84541C17.0985 8.88917 17.0312 8.93277 16.9641 8.97674C15.8951 9.67752 15.0577 10.5709 14.6681 11.8165C14.1412 13.5008 14.7331 15.3212 16.1836 16.4874C17.475 17.5257 18.981 17.8556 20.6005 17.7881C20.768 17.7811 20.9351 17.7659 21.1155 17.7941C20.9969 17.8413 20.8783 17.8883 20.7599 17.9359C19.9126 18.2763 19.0509 18.5855 18.2227 18.9673C17.5591 19.2732 16.896 19.2776 16.2243 19.1113C14.1405 18.5952 12.9406 17.1812 12.4282 15.1701C11.9835 13.4248 12.3134 11.8226 13.5784 10.4738C13.8422 10.1925 14.1362 9.96179 14.515 9.84173C14.81 9.74826 15.0919 9.61355 15.399 9.49044Z" fill="#A60303"/>
<path d="M25.4378 6.4378C26.3362 8.67666 27.2272 10.8964 28.1287 13.1419C27.9049 13.2338 27.6963 13.3195 27.4644 13.4148C27.412 13.3245 27.3626 13.2436 27.3171 13.1606C26.295 11.2948 25.2748 9.42788 24.2499 7.56359C24.1092 7.30759 23.951 7.06062 23.7914 6.81567C23.2164 5.93326 22.407 5.62166 21.3988 5.8956C20.0991 6.24874 18.808 6.6332 17.5131 7.00412C17.4288 7.02829 17.3443 7.05209 17.2415 7.08127C17.1465 6.84661 17.0541 6.61861 16.952 6.36682C17.3928 6.18912 17.8257 6.01351 18.2594 5.83994C19.5837 5.30997 20.9055 4.77353 22.2348 4.25653C22.5542 4.13231 22.8959 4.0586 23.2328 3.98809C23.822 3.86481 24.2814 4.08914 24.6033 4.58069C24.7575 4.81621 24.8803 5.07516 24.9941 5.33373C25.1511 5.6903 25.2861 6.05655 25.4378 6.4378Z" fill="white"/>
<path d="M9.23722 7.05312C9.01139 7.18028 8.79699 7.28877 8.59637 7.41857C7.887 7.87755 7.67958 8.53565 7.85818 9.3382C7.9119 9.57959 7.97409 9.8191 8.03495 10.07C7.95932 10.1045 7.88845 10.1369 7.77081 10.1907C7.48695 9.4177 7.17681 8.66372 6.93688 7.888C6.77596 7.36773 6.95189 7.05315 7.46817 6.81639C8.02362 6.56167 8.59737 6.34664 9.16464 6.11801C10.6191 5.53184 12.0744 4.94772 13.5518 4.35376C13.6079 4.48352 13.6589 4.6015 13.7251 4.75457C12.2303 5.52023 10.7426 6.28223 9.23722 7.05312Z" fill="white"/>
<path d="M67.7034 27.6225C67.7039 27.1176 67.7043 26.6388 67.7055 26.16C67.7055 26.1437 67.7141 26.1275 67.7203 26.1057C68.2284 26.1057 68.7389 26.0826 69.2461 26.1135C69.6004 26.1351 69.7992 26.3422 69.8162 26.5996C69.8327 26.8496 69.6645 27.0299 69.3164 27.1331C69.2745 27.1456 69.2306 27.1514 69.2027 27.1572C69.4751 27.4241 69.7539 27.6974 70.0748 28.012C69.7285 28.0984 69.5224 28.0546 69.3806 27.8146C69.3451 27.7546 69.283 27.7109 69.2432 27.6529C68.9577 27.237 68.5609 27.1238 68.062 27.2272C68.062 27.4891 68.062 27.7596 68.062 28.0418C67.9367 28.0418 67.8343 28.0418 67.7034 28.0418C67.7034 27.9093 67.7034 27.7789 67.7034 27.6225ZM68.5729 26.9858C68.7491 26.9784 68.9271 26.9843 69.1009 26.9602C69.2879 26.9343 69.4504 26.8431 69.4479 26.6266C69.4456 26.4224 69.29 26.3281 69.1108 26.3204C68.7627 26.3053 68.4134 26.316 68.0687 26.316C68.0687 26.5406 68.0687 26.7509 68.0687 26.9858C68.2251 26.9858 68.373 26.9858 68.5729 26.9858Z" fill="white"/>
<path d="M65.8984 27.0925C66.189 27.0925 66.4548 27.0925 66.754 27.0925C66.754 27.3111 66.7618 27.5206 66.7486 27.7287C66.7452 27.7829 66.6873 27.8571 66.6355 27.8811C66.0742 28.1413 65.4994 28.2083 64.9176 27.954C64.5325 27.7856 64.3232 27.4884 64.3291 27.059C64.3349 26.6339 64.5418 26.3288 64.9253 26.1638C65.3463 25.9828 65.7915 25.9513 66.217 26.129C66.4127 26.2107 66.5691 26.3864 66.7998 26.5626C66.6519 26.6092 66.6045 26.6264 66.5559 26.6387C66.5136 26.6494 66.4699 26.6544 66.429 26.6615C66.121 26.2308 65.5564 26.0997 65.0921 26.3539C64.7972 26.5153 64.6768 26.7785 64.6871 27.1061C64.6973 27.4278 64.8409 27.6666 65.1427 27.7944C65.5346 27.9604 65.9298 27.9295 66.2935 27.7357C66.3894 27.6847 66.4053 27.4833 66.4718 27.3159C66.164 27.3159 65.9267 27.3159 65.6958 27.3159C65.5584 27.0615 65.7357 27.0944 65.8984 27.0925Z" fill="white"/>
<path d="M39.6605 27.1466C39.6605 26.7839 39.6605 26.4479 39.6605 26.0586C40.1562 26.0822 40.642 26.0732 41.1181 26.1373C41.5786 26.1993 41.8362 26.5668 41.8402 27.048C41.8443 27.5385 41.5791 27.9279 41.1188 27.9925C40.6489 28.0586 40.169 28.0525 39.6605 28.0797C39.6605 27.7519 39.6605 27.4626 39.6605 27.1466ZM40.3765 26.2942C40.2575 26.2942 40.1386 26.2942 40.0241 26.2942C40.0241 26.8279 40.0241 27.3219 40.0241 27.8156C40.3229 27.8156 40.6129 27.8295 40.901 27.8118C41.2035 27.7933 41.3751 27.6002 41.4496 27.317C41.6084 26.7127 41.2914 26.2995 40.6674 26.2943C40.5877 26.2937 40.5079 26.2943 40.3765 26.2942Z" fill="white"/>
<path d="M46.6755 27C46.7103 27.8291 45.901 28.2173 45.1428 28.084C44.4563 27.9634 44.1015 27.5316 44.1735 26.9194C44.2145 26.5698 44.4078 26.3289 44.7153 26.1831C45.1725 25.9664 45.6395 25.9625 46.0999 26.1748C46.4399 26.3315 46.6376 26.5992 46.6755 27ZM46.0376 27.6951C46.3226 27.4523 46.3659 27.1452 46.2744 26.8026C46.1847 26.467 45.9321 26.3141 45.6199 26.2587C45.2623 26.1954 44.9158 26.2508 44.682 26.5567C44.4732 26.8299 44.4484 27.1572 44.6065 27.4615C44.786 27.8071 45.1175 27.9191 45.4836 27.8859C45.6615 27.8697 45.8326 27.7782 46.0376 27.6951Z" fill="white"/>
<path d="M55.3071 26.3788C55.8079 25.9653 56.3548 25.933 56.9162 26.1474C57.3102 26.2978 57.5417 26.6039 57.5499 27.0427C57.558 27.4784 57.35 27.788 56.9593 27.9667C56.5176 28.1687 56.0646 28.1696 55.6252 27.9666C54.9882 27.6722 54.842 26.9513 55.3071 26.3788ZM56.2661 27.8931C56.3103 27.893 56.355 27.8966 56.3988 27.8922C56.8947 27.8428 57.1924 27.5305 57.19 27.064C57.1876 26.5997 56.8732 26.2757 56.3911 26.2407C55.8577 26.2021 55.4875 26.4562 55.4068 26.9163C55.3123 27.4549 55.6068 27.8085 56.2661 27.8931Z" fill="white"/>
<path d="M63.5011 27.2645C63.3207 28.1793 61.9738 28.3204 61.3811 27.836C61.1401 27.6392 61.0025 27.3975 61.0066 27.0793C61.0123 26.6291 61.234 26.2958 61.6538 26.1361C62.0215 25.9963 62.3962 25.9843 62.7727 26.1035C63.306 26.2722 63.5606 26.6692 63.5011 27.2645ZM63.1018 27.4082C63.1207 27.3218 63.1496 27.2363 63.1568 27.149C63.1985 26.6472 62.8764 26.2801 62.3655 26.2408C61.801 26.1973 61.417 26.4859 61.366 26.9918C61.3244 27.4049 61.528 27.7135 61.928 27.8435C62.3893 27.9935 62.8438 27.8366 63.1018 27.4082Z" fill="white"/>
<path d="M31.3661 26.089C31.7387 25.9954 32.0869 25.9954 32.4289 26.127C32.6402 26.2083 32.7905 26.3444 32.8264 26.5955C32.6527 26.6302 32.5313 26.6376 32.4184 26.4413C32.2654 26.1753 31.5314 26.1651 31.3218 26.3942C31.1909 26.5372 31.2355 26.7186 31.4433 26.7824C31.6697 26.8518 31.9079 26.8824 32.1404 26.9328C32.2694 26.9607 32.3997 26.9865 32.5249 27.0271C32.7323 27.0943 32.8892 27.2186 32.9022 27.4557C32.9155 27.6974 32.7871 27.8649 32.5793 27.9611C32.1198 28.1739 31.653 28.1667 31.1937 27.9597C30.9785 27.8627 30.845 27.6924 30.8198 27.4301C30.9248 27.4301 31.0254 27.4301 31.129 27.4301C31.3288 27.8726 32.0043 28.0629 32.4113 27.7756C32.4864 27.7225 32.566 27.5978 32.5543 27.5195C32.5404 27.4265 32.4455 27.3015 32.3583 27.2722C32.1261 27.1942 31.8783 27.1637 31.6383 27.1074C31.4927 27.0733 31.3271 27.0588 31.2123 26.9768C31.088 26.8881 30.9364 26.7317 30.9357 26.604C30.9349 26.4619 31.0844 26.3143 31.1823 26.1791C31.2144 26.1348 31.2896 26.1218 31.3661 26.089Z" fill="white"/>
<path d="M76.6601 27.978C76.6588 27.3418 76.6588 26.7304 76.6588 26.0991C76.776 26.0991 76.8836 26.0991 77.0058 26.0991C77.0058 26.3654 77.0058 26.6296 77.0058 26.9131C77.4657 26.9131 77.912 26.9131 78.3807 26.9131C78.3807 26.6451 78.3807 26.3742 78.3807 26.0916C78.5042 26.0916 78.6057 26.0916 78.7185 26.0916C78.7185 26.7395 78.7185 27.3837 78.7185 28.041C78.6129 28.041 78.5107 28.041 78.3889 28.041C78.3889 27.75 78.3889 27.46 78.3889 27.1589C77.9289 27.1589 77.4883 27.1589 77.0234 27.1589C77.0234 27.4461 77.0234 27.7338 77.0234 28.0704C76.8831 28.0442 76.7723 28.0235 76.6601 27.978Z" fill="white"/>
<path d="M53.1959 27.1474C52.8969 27.1474 52.6244 27.1474 52.3383 27.1474C52.3383 27.4532 52.3383 27.7344 52.3383 28.0347C52.2172 28.0347 52.1096 28.0347 51.9912 28.0347C51.9912 27.387 51.9912 26.7438 51.9912 26.0898C52.1055 26.0898 52.2078 26.0898 52.3326 26.0898C52.3326 26.3688 52.3326 26.6395 52.3326 26.921C52.7948 26.921 53.2347 26.921 53.698 26.921C53.698 26.6484 53.698 26.3782 53.698 26.094C53.8219 26.094 53.923 26.094 54.0376 26.094C54.0376 26.7351 54.0376 27.3792 54.0376 28.0388C53.9378 28.0388 53.8363 28.0388 53.7151 28.0388C53.7151 27.7523 53.7151 27.4627 53.7151 27.1474C53.5381 27.1474 53.3803 27.1474 53.1959 27.1474Z" fill="white"/>
<path d="M38.2991 27.2935C38.2995 26.879 38.2995 26.4894 38.2995 26.0896C38.4227 26.0896 38.5249 26.0896 38.6382 26.0896C38.6382 26.5472 38.6537 26.9986 38.6327 27.4483C38.6191 27.7397 38.4474 27.9764 38.1561 28.0151C37.8046 28.0617 37.4386 28.0681 37.087 28.0253C36.7842 27.9885 36.6122 27.7446 36.6 27.4401C36.5822 26.9983 36.5954 26.5553 36.5954 26.0959C36.6905 26.0959 36.7923 26.0959 36.9308 26.0959C36.9308 26.448 36.929 26.8084 36.9312 27.1687C36.935 27.809 37.5122 28.1374 38.0608 27.7859C38.1877 27.7045 38.2219 27.4782 38.2991 27.2935Z" fill="white"/>
<path d="M49.7328 26.0791C50.0423 26.0914 50.3283 26.0827 50.6078 26.1214C50.9282 26.1657 51.1119 26.379 51.1146 26.6458C51.1174 26.9152 50.9433 27.1476 50.6324 27.1938C50.2583 27.2494 49.8765 27.2532 49.4734 27.2811C49.4734 27.5153 49.4734 27.768 49.4734 28.0372C49.3418 28.0372 49.2332 28.0372 49.1124 28.0372C49.1124 27.3949 49.1124 26.7578 49.1124 26.0791C49.3073 26.0791 49.5068 26.0791 49.7328 26.0791ZM49.5038 27.0363C49.7963 27.0321 50.0902 27.0438 50.3808 27.0184C50.5863 27.0005 50.759 26.9044 50.7476 26.6492C50.7363 26.3987 50.562 26.3125 50.3548 26.3004C50.065 26.2835 49.7734 26.2962 49.4661 26.2962C49.4661 26.544 49.4661 26.7727 49.5038 27.0363Z" fill="white"/>
<path d="M73.7268 26.304C73.7686 26.2121 73.81 26.0884 73.8524 26.0881C74.3027 26.0846 74.755 26.0794 75.2029 26.1183C75.5429 26.1479 75.7346 26.3663 75.7409 26.6381C75.7475 26.9235 75.5602 27.1544 75.2169 27.2023C74.853 27.2531 74.482 27.2539 74.092 27.278C74.092 27.5235 74.092 27.7761 74.092 28.041C73.9679 28.041 73.8651 28.041 73.7268 28.041C73.7268 27.4733 73.7268 26.9014 73.7268 26.304ZM74.984 27.0306C75.2032 26.9809 75.3989 26.9078 75.3726 26.6242C75.3527 26.4096 75.19 26.299 74.8803 26.2947C74.6191 26.2912 74.3578 26.294 74.1041 26.294C74.1041 26.5605 74.1041 26.7943 74.1041 27.0373C74.3924 27.0373 74.6649 27.0373 74.984 27.0306Z" fill="white"/>
<path d="M71.0226 27.1673C71.1947 26.8351 71.3528 26.5179 71.5182 26.2046C71.6107 26.0293 71.9127 26.0176 72.0079 26.1894C72.334 26.7784 72.6526 27.3715 72.9726 27.9638C72.9839 27.9847 72.9793 28.0144 72.9814 28.0338C72.7183 28.1201 72.5538 28.0281 72.483 27.7666C72.4134 27.51 72.2467 27.4203 71.9888 27.4647C71.894 27.4811 71.7913 27.482 71.6967 27.4648C71.3381 27.3994 71.1054 27.5289 71.0161 27.8874C70.9527 28.1419 70.7588 28.0311 70.5773 28.0557C70.7297 27.75 70.8707 27.467 71.0226 27.1673ZM72.0202 26.8446C71.9387 26.6801 71.8572 26.5155 71.7681 26.3358C71.6207 26.6434 71.4797 26.9376 71.338 27.2333C71.6457 27.2333 71.9205 27.2333 72.2127 27.2333C72.1474 27.0997 72.0935 26.9896 72.0202 26.8446Z" fill="white"/>
<path d="M80.8745 26.7624C81.0513 26.5678 81.2122 26.3544 81.4112 26.1862C81.5164 26.0973 81.6878 26.0869 81.8294 26.041C81.8423 26.0637 81.8552 26.0864 81.8681 26.1091C81.6079 26.3918 81.3572 26.6842 81.084 26.9537C80.9066 27.1287 80.8207 27.3138 80.8496 27.5635C80.8676 27.7187 80.8529 27.8778 80.8529 28.044C80.7252 28.044 80.6228 28.044 80.5247 28.044C80.5127 28.0183 80.4967 28.001 80.4995 27.9876C80.6321 27.3524 80.3035 26.9152 79.878 26.5141C79.7512 26.3945 79.6449 26.2533 79.5211 26.1129C79.7719 26.0242 79.951 26.0871 80.0926 26.2931C80.1675 26.4019 80.2633 26.4963 80.3711 26.6223C80.4902 26.7621 80.5878 26.8769 80.7015 27.0105C80.7684 26.9146 80.8214 26.8385 80.8745 26.7624Z" fill="white"/>
<path d="M34.7579 28.0531C34.5894 28.0763 34.5333 28.0307 34.5366 27.8718C34.5472 27.3579 34.5405 26.8436 34.5405 26.3024C34.2573 26.3024 33.9791 26.3024 33.6899 26.3024C33.6899 26.2183 33.6899 26.161 33.6899 26.0918C34.3715 26.0918 35.0508 26.0918 35.7296 26.0918C35.745 26.2859 35.7451 26.2897 35.5875 26.2923C35.3662 26.296 35.1448 26.2932 34.8838 26.2932C34.8838 26.8118 34.8878 27.3216 34.8793 27.8311C34.8781 27.9056 34.8169 27.9791 34.7579 28.0531Z" fill="white"/>
<path d="M58.5323 26.0801C59.1346 26.0801 59.7106 26.0801 60.2963 26.0801C60.3521 26.2083 60.3675 26.2987 60.18 26.2946C59.95 26.2896 59.7198 26.2934 59.4686 26.2934C59.4686 26.877 59.4686 27.4498 59.4686 28.038C59.3456 28.038 59.2436 28.038 59.1215 28.038C59.1215 27.4686 59.1215 26.8962 59.1215 26.3048C58.8316 26.3048 58.5608 26.3048 58.2698 26.3048C58.2638 26.2252 58.2592 26.1632 58.2529 26.0801C58.3497 26.0801 58.4279 26.0801 58.5323 26.0801Z" fill="white"/>
<path d="M42.8859 26.5608C42.8859 26.3928 42.8859 26.2513 42.8859 26.095C42.9979 26.095 43.1003 26.095 43.218 26.095C43.218 26.7354 43.218 27.3787 43.218 28.0378C43.1205 28.0378 43.0191 28.0378 42.8859 28.0378C42.8859 27.5554 42.8859 27.0714 42.8859 26.5608Z" fill="white"/>
</svg>
