<svg width="87" height="32" viewBox="0 0 87 32" fill="none" xmlns="http://www.w3.org/2000/svg">
<path d="M66.9292 3.58655C68.3996 3.95537 69.3436 4.82161 69.6399 6.31853C69.6931 6.58685 69.7169 6.86532 69.7172 7.13914C69.7218 12.2313 69.7208 17.3235 69.721 22.4156C69.721 22.4586 69.721 22.5016 69.721 22.559C68.8304 22.559 67.9552 22.559 67.0504 22.559C67.0504 21.2954 67.0504 20.022 67.0504 18.7321C65.9529 18.7321 64.8847 18.7321 63.7976 18.7321C63.7976 20.0059 63.7976 21.2727 63.7976 22.5567C62.8964 22.5567 62.014 22.5567 61.1132 22.5567C61.1132 21.283 61.1132 20.015 61.1132 18.7154C60.5656 18.7154 60.0322 18.6781 59.5065 18.726C58.9919 18.773 58.6509 18.6065 58.3575 18.1819C58.0315 17.7102 57.6336 17.2884 57.2389 16.8108C58.5405 16.8108 59.803 16.8108 61.1052 16.8108C61.1052 16.6853 61.1052 16.5836 61.1052 16.4819C61.1052 13.4071 61.1032 10.3322 61.1061 7.25739C61.1077 5.58487 61.8981 4.35696 63.3689 3.80548C63.8124 3.6392 64.293 3.50728 64.7617 3.48868C65.4747 3.4604 66.1921 3.54466 66.9292 3.58655ZM63.7951 15.8666C63.7951 16.1735 63.7951 16.4803 63.7951 16.7859C64.8924 16.7859 65.9538 16.7859 67.0398 16.7859C67.0398 16.7038 67.0398 16.6349 67.0398 16.566C67.0397 13.4567 67.0404 10.3475 67.0377 7.2382C67.0375 7.03454 67.0241 6.82889 66.9938 6.62764C66.9004 6.00653 66.642 5.67675 66.0618 5.58588C65.6398 5.51977 65.1944 5.52287 64.7695 5.57558C64.2601 5.63876 63.952 5.98254 63.8644 6.4909C63.8194 6.75182 63.7984 7.02005 63.798 7.28503C63.7934 10.1278 63.7951 12.9705 63.7951 15.8666Z" fill="black"/>
<path d="M79.9558 3.95651C80.6383 3.95651 81.2943 3.95651 81.9685 3.95651C81.9685 10.1618 81.9685 16.3512 81.9685 22.5571C81.0922 22.5571 80.2107 22.5571 79.3059 22.5571C79.3059 22.4558 79.3059 22.3604 79.3059 22.265C79.3059 19.7229 79.3086 17.1808 79.2993 14.6388C79.2988 14.4866 79.2393 14.3062 79.1459 14.187C78.2095 12.9912 77.2602 11.8054 76.3145 10.6168C76.2778 10.5708 76.2403 10.5255 76.1621 10.4295C76.1621 14.5088 76.1621 18.527 76.1621 22.5594C75.2491 22.5594 74.3638 22.5594 73.4585 22.5594C73.4585 16.0694 73.4585 9.57158 73.4585 3.02449C75.4066 5.5791 77.3302 8.10176 79.2945 10.6776C79.2945 8.40668 79.2945 6.19617 79.2945 3.95651C79.5261 3.95651 79.7278 3.95651 79.9558 3.95651Z" fill="black"/>
<path d="M38.5598 5.59999C38.5598 5.04227 38.5598 4.51122 38.5598 3.96836C39.4724 3.96836 40.3577 3.96836 41.2792 3.96836C41.2792 4.07009 41.2792 4.17335 41.2792 4.27661C41.2792 9.22725 41.2789 14.1779 41.28 19.1285C41.28 19.3238 41.2824 19.5201 41.3023 19.714C41.373 20.4042 41.746 20.845 42.4296 20.9323C42.8261 20.9829 43.2493 20.9593 43.6414 20.8776C44.2229 20.7564 44.5573 20.3015 44.6125 19.6873C44.6267 19.5284 44.6259 19.3677 44.6259 19.2078C44.6266 14.2305 44.6265 9.25324 44.6266 4.27594C44.6266 4.18002 44.6266 4.0841 44.6266 3.9723C45.5132 3.9723 46.379 3.9723 47.2814 3.9723C47.2814 4.06504 47.2814 4.15858 47.2814 4.25212C47.2813 9.22942 47.2518 14.207 47.2943 19.1839C47.3142 21.503 45.8749 22.697 44.0041 22.9713C42.9928 23.1196 41.9832 23.0957 41.0005 22.7739C39.4055 22.2515 38.5614 21.0606 38.5605 19.332C38.5584 14.7636 38.5598 10.1951 38.5598 5.59999Z" fill="black"/>
<path d="M34.2209 22.5702C33.6476 22.5156 33.0944 22.497 32.5554 22.3999C31.1649 22.1493 30.5046 21.4293 30.3372 20.0296C30.3003 19.7216 30.2775 19.4099 30.2773 19.0999C30.2735 14.1246 30.2744 9.14937 30.2743 4.1741C30.2743 4.1128 30.2743 4.0515 30.2743 3.97329C31.179 3.97329 32.0706 3.97329 32.9931 3.97329C32.9931 4.06964 32.9931 4.16397 32.9931 4.25831C32.9931 9.12697 32.9917 13.9956 32.9956 18.8643C32.9959 19.2452 33.0266 19.6266 33.055 20.0069C33.0762 20.2923 33.2317 20.4655 33.5265 20.4865C33.9067 20.5136 34.2872 20.5507 34.6678 20.5553C35.5201 20.5657 36.3726 20.5586 37.2251 20.5586C37.321 20.5586 37.417 20.5586 37.5223 20.5586C37.5223 21.2383 37.5223 21.8923 37.5223 22.5704C36.4251 22.5704 35.3363 22.5704 34.2209 22.5702Z" fill="black"/>
<path d="M52.7771 11.107C52.0262 14.5356 52.9271 17.4637 55.3371 19.952C56.2184 20.8619 57.207 21.642 58.2524 22.3528C58.3375 22.4107 58.4226 22.4686 58.5764 22.5732C58.4268 22.5732 58.3528 22.5732 58.2788 22.5732C57.1419 22.5734 56.0049 22.5761 54.868 22.5695C54.7625 22.5689 54.6325 22.5387 54.5555 22.4732C52.6471 20.8479 51.1465 18.9228 50.3854 16.5067C49.3195 13.1231 49.8686 9.96715 51.8553 7.04808C52.6148 5.93223 53.5339 4.95864 54.5477 4.07244C54.6096 4.01831 54.6976 3.96162 54.7738 3.9612C56.0145 3.95431 57.2551 3.95632 58.5718 3.95632C58.4436 4.04966 58.372 4.10468 58.2975 4.15561C56.9271 5.09309 55.668 6.15423 54.6306 7.46131C53.7708 8.54476 53.1319 9.74154 52.7771 11.107Z" fill="black"/>
<path d="M46.054 23.987C58.7214 23.987 71.3621 23.987 84.0228 23.987C84.0228 24.3077 84.0228 24.6123 84.0228 24.9365C65.6238 24.9365 47.2232 24.9365 28.8079 24.9365C28.8079 24.6253 28.8079 24.3195 28.8079 23.987C34.5547 23.987 40.291 23.987 46.054 23.987Z" fill="#A60303"/>
<path d="M10.2254 25.0103C9.81428 25.0291 9.42042 25.0923 9.03864 25.049C8.45811 24.9831 8.02021 24.623 7.71481 24.1476C7.43401 23.7105 7.18248 23.2451 6.98704 22.7641C5.72894 19.6677 4.48978 16.5637 3.24486 13.462C3.23873 13.4467 3.2392 13.4288 3.23279 13.3878C3.999 13.0798 4.77001 12.7698 5.56266 12.4511C5.60684 12.5467 5.64986 12.6299 5.68457 12.7165C6.80997 15.5222 7.93453 18.3283 9.05951 21.1342C9.0925 21.2165 9.12629 21.2986 9.16365 21.379C9.71536 22.5657 10.6629 22.951 11.8781 22.4726C12.8512 22.0895 13.8198 21.695 14.7906 21.3061C14.8711 21.2738 14.9533 21.2458 15.0522 21.2094C15.2849 21.7892 15.5116 22.354 15.7425 22.9294C15.7037 22.9545 15.678 22.9774 15.648 22.9894C14.3236 23.5211 13.0029 24.0626 11.6718 24.5769C11.2106 24.7551 10.7234 24.8657 10.2254 25.0103Z" fill="#A60303"/>
<path d="M15.399 9.4905C15.9909 9.25353 16.5635 9.02328 17.136 8.79303C17.1459 8.81051 17.1558 8.82799 17.1657 8.84547C17.0985 8.88923 17.0312 8.93283 16.9641 8.97679C15.8951 9.67758 15.0577 10.5709 14.6681 11.8165C14.1412 13.5009 14.7331 15.3213 16.1836 16.4874C17.475 17.5257 18.981 17.8556 20.6005 17.7881C20.768 17.7811 20.9351 17.766 21.1155 17.7941C20.9969 17.8414 20.8783 17.8884 20.7599 17.9359C19.9126 18.2764 19.0509 18.5856 18.2227 18.9674C17.5591 19.2733 16.896 19.2777 16.2243 19.1113C14.1405 18.5953 12.9406 17.1813 12.4282 15.1701C11.9835 13.4248 12.3134 11.8226 13.5784 10.4738C13.8422 10.1926 14.1362 9.96184 14.515 9.84178C14.81 9.74831 15.0919 9.61361 15.399 9.4905Z" fill="#A60303"/>
<path d="M25.4378 6.43792C26.3362 8.67679 27.2272 10.8965 28.1287 13.142C27.9049 13.234 27.6963 13.3197 27.4644 13.4149C27.412 13.3246 27.3626 13.2437 27.3171 13.1607C26.295 11.2949 25.2748 9.428 24.2499 7.56371C24.1092 7.30771 23.951 7.06074 23.7914 6.81579C23.2164 5.93338 22.407 5.62178 21.3988 5.89572C20.0991 6.24886 18.808 6.63332 17.5131 7.00424C17.4288 7.02841 17.3443 7.05221 17.2415 7.08139C17.1465 6.84674 17.0541 6.61873 16.952 6.36694C17.3928 6.18924 17.8257 6.01363 18.2594 5.84006C19.5837 5.31009 20.9055 4.77366 22.2348 4.25665C22.5542 4.13244 22.8959 4.05872 23.2328 3.98821C23.822 3.86493 24.2814 4.08926 24.6033 4.58081C24.7575 4.81633 24.8803 5.07529 24.9941 5.33385C25.1511 5.69042 25.2861 6.05667 25.4378 6.43792Z" fill="black"/>
<path d="M9.23722 7.05324C9.01139 7.18039 8.79699 7.28888 8.59637 7.41869C7.887 7.87766 7.67958 8.53576 7.85818 9.33831C7.9119 9.57971 7.97409 9.81921 8.03495 10.0701C7.95932 10.1047 7.88845 10.1371 7.77081 10.1908C7.48695 9.41781 7.17681 8.66383 6.93688 7.88811C6.77596 7.36785 6.95189 7.05326 7.46817 6.8165C8.02362 6.56178 8.59737 6.34675 9.16464 6.11813C10.6191 5.53195 12.0744 4.94784 13.5518 4.35387C13.6079 4.48363 13.6589 4.60161 13.7251 4.75469C12.2303 5.52034 10.7426 6.28234 9.23722 7.05324Z" fill="black"/>
<path d="M67.7034 27.6225C67.7039 27.1177 67.7043 26.6389 67.7055 26.16C67.7055 26.1438 67.7141 26.1276 67.7203 26.1057C68.2284 26.1057 68.7389 26.0827 69.2461 26.1136C69.6004 26.1352 69.7992 26.3422 69.8162 26.5997C69.8327 26.8496 69.6645 27.0299 69.3164 27.1332C69.2745 27.1456 69.2306 27.1515 69.2027 27.1573C69.4751 27.4242 69.7539 27.6975 70.0748 28.012C69.7285 28.0984 69.5224 28.0546 69.3806 27.8147C69.3451 27.7547 69.283 27.711 69.2432 27.6529C68.9577 27.2371 68.5609 27.1239 68.062 27.2273C68.062 27.4891 68.062 27.7596 68.062 28.0418C67.9367 28.0418 67.8343 28.0418 67.7034 28.0418C67.7034 27.9093 67.7034 27.7789 67.7034 27.6225ZM68.5729 26.9858C68.7491 26.9785 68.9271 26.9843 69.1009 26.9602C69.2879 26.9343 69.4504 26.8431 69.4479 26.6266C69.4456 26.4225 69.29 26.3281 69.1108 26.3204C68.7627 26.3054 68.4134 26.316 68.0687 26.316C68.0687 26.5406 68.0687 26.751 68.0687 26.9858C68.2251 26.9858 68.373 26.9858 68.5729 26.9858Z" fill="black"/>
<path d="M65.8984 27.0926C66.189 27.0926 66.4548 27.0926 66.754 27.0926C66.754 27.3112 66.7618 27.5207 66.7486 27.7288C66.7452 27.783 66.6873 27.8572 66.6355 27.8812C66.0742 28.1414 65.4994 28.2084 64.9176 27.9541C64.5325 27.7857 64.3232 27.4885 64.3291 27.0591C64.3349 26.634 64.5418 26.3289 64.9253 26.1639C65.3463 25.9829 65.7915 25.9514 66.217 26.1291C66.4127 26.2108 66.5691 26.3865 66.7998 26.5627C66.6519 26.6093 66.6045 26.6265 66.5559 26.6388C66.5136 26.6495 66.4699 26.6545 66.429 26.6616C66.121 26.2309 65.5564 26.0998 65.0921 26.354C64.7972 26.5154 64.6768 26.7786 64.6871 27.1062C64.6973 27.4279 64.8409 27.6667 65.1427 27.7945C65.5346 27.9605 65.9298 27.9296 66.2935 27.7359C66.3894 27.6848 66.4053 27.4834 66.4718 27.316C66.164 27.316 65.9267 27.316 65.6958 27.316C65.5584 27.0616 65.7357 27.0945 65.8984 27.0926Z" fill="black"/>
<path d="M39.6605 27.1466C39.6605 26.7839 39.6605 26.4479 39.6605 26.0586C40.1562 26.0822 40.642 26.0732 41.1181 26.1373C41.5786 26.1993 41.8362 26.5668 41.8402 27.048C41.8443 27.5385 41.5791 27.9279 41.1188 27.9926C40.6489 28.0586 40.169 28.0525 39.6605 28.0797C39.6605 27.7519 39.6605 27.4626 39.6605 27.1466ZM40.3765 26.2943C40.2575 26.2943 40.1386 26.2943 40.0241 26.2943C40.0241 26.8279 40.0241 27.3219 40.0241 27.8156C40.3229 27.8156 40.6129 27.8295 40.901 27.8118C41.2035 27.7933 41.3751 27.6003 41.4496 27.317C41.6084 26.7127 41.2914 26.2995 40.6674 26.2944C40.5877 26.2937 40.5079 26.2943 40.3765 26.2943Z" fill="black"/>
<path d="M46.6755 26.9999C46.7103 27.829 45.901 28.2172 45.1428 28.084C44.4563 27.9633 44.1015 27.5316 44.1735 26.9193C44.2145 26.5697 44.4078 26.3288 44.7153 26.1831C45.1725 25.9664 45.6395 25.9625 46.0999 26.1747C46.4399 26.3315 46.6376 26.5991 46.6755 26.9999ZM46.0376 27.6951C46.3226 27.4523 46.3659 27.1451 46.2744 26.8025C46.1847 26.4669 45.9321 26.314 45.6199 26.2587C45.2623 26.1953 44.9158 26.2508 44.682 26.5566C44.4732 26.8299 44.4484 27.1571 44.6065 27.4615C44.786 27.807 45.1175 27.9191 45.4836 27.8858C45.6615 27.8696 45.8326 27.7782 46.0376 27.6951Z" fill="black"/>
<path d="M55.3071 26.3787C55.8079 25.9652 56.3548 25.9329 56.9162 26.1473C57.3102 26.2977 57.5417 26.6038 57.5499 27.0426C57.558 27.4783 57.35 27.7879 56.9593 27.9666C56.5176 28.1686 56.0646 28.1695 55.6252 27.9665C54.9882 27.6721 54.842 26.9512 55.3071 26.3787ZM56.2661 27.893C56.3103 27.8929 56.355 27.8965 56.3988 27.8921C56.8947 27.8427 57.1924 27.5304 57.19 27.0639C57.1876 26.5996 56.8732 26.2756 56.3911 26.2406C55.8577 26.202 55.4875 26.4561 55.4068 26.9162C55.3123 27.4548 55.6068 27.8084 56.2661 27.893Z" fill="black"/>
<path d="M63.5011 27.2644C63.3207 28.1792 61.9738 28.3203 61.3811 27.836C61.1401 27.6391 61.0025 27.3974 61.0066 27.0792C61.0123 26.629 61.234 26.2957 61.6538 26.136C62.0215 25.9962 62.3962 25.9843 62.7727 26.1034C63.306 26.2721 63.5606 26.6691 63.5011 27.2644ZM63.1018 27.4081C63.1207 27.3217 63.1496 27.2362 63.1568 27.1489C63.1985 26.6471 62.8764 26.28 62.3655 26.2407C61.801 26.1972 61.417 26.4858 61.366 26.9917C61.3244 27.4048 61.528 27.7134 61.928 27.8434C62.3893 27.9935 62.8438 27.8365 63.1018 27.4081Z" fill="black"/>
<path d="M31.3661 26.0889C31.7387 25.9953 32.0869 25.9953 32.4289 26.1269C32.6402 26.2082 32.7905 26.3443 32.8264 26.5954C32.6527 26.6301 32.5313 26.6375 32.4184 26.4412C32.2654 26.1752 31.5314 26.1651 31.3218 26.3941C31.1909 26.5371 31.2355 26.7185 31.4433 26.7823C31.6697 26.8517 31.9079 26.8824 32.1404 26.9327C32.2694 26.9606 32.3997 26.9864 32.5249 27.027C32.7323 27.0942 32.8892 27.2185 32.9022 27.4557C32.9155 27.6973 32.7871 27.8648 32.5793 27.961C32.1198 28.1738 31.653 28.1666 31.1937 27.9596C30.9785 27.8626 30.845 27.6923 30.8198 27.43C30.9248 27.43 31.0254 27.43 31.129 27.43C31.3288 27.8725 32.0043 28.0628 32.4113 27.7755C32.4864 27.7224 32.566 27.5977 32.5543 27.5194C32.5404 27.4264 32.4455 27.3014 32.3583 27.2721C32.1261 27.1942 31.8783 27.1636 31.6383 27.1074C31.4927 27.0732 31.3271 27.0587 31.2123 26.9767C31.088 26.888 30.9364 26.7316 30.9357 26.6039C30.9349 26.4618 31.0844 26.3142 31.1823 26.179C31.2144 26.1347 31.2896 26.1217 31.3661 26.0889Z" fill="black"/>
<path d="M76.6603 27.9782C76.6589 27.3419 76.6589 26.7305 76.6589 26.0992C76.7761 26.0992 76.8837 26.0992 77.0059 26.0992C77.0059 26.3655 77.0059 26.6297 77.0059 26.9132C77.4658 26.9132 77.9121 26.9132 78.3808 26.9132C78.3808 26.6452 78.3808 26.3743 78.3808 26.0917C78.5044 26.0917 78.6058 26.0917 78.7186 26.0917C78.7186 26.7396 78.7186 27.3838 78.7186 28.0411C78.613 28.0411 78.5108 28.0411 78.389 28.0411C78.389 27.7501 78.389 27.4601 78.389 27.159C77.9291 27.159 77.4884 27.159 77.0235 27.159C77.0235 27.4463 77.0235 27.7339 77.0235 28.0705C76.8832 28.0443 76.7724 28.0236 76.6603 27.9782Z" fill="black"/>
<path d="M53.1959 27.1475C52.8969 27.1475 52.6244 27.1475 52.3383 27.1475C52.3383 27.4532 52.3383 27.7344 52.3383 28.0347C52.2172 28.0347 52.1096 28.0347 51.9912 28.0347C51.9912 27.3871 51.9912 26.7438 51.9912 26.0899C52.1055 26.0899 52.2078 26.0899 52.3326 26.0899C52.3326 26.3688 52.3326 26.6396 52.3326 26.921C52.7948 26.921 53.2347 26.921 53.698 26.921C53.698 26.6484 53.698 26.3782 53.698 26.094C53.8219 26.094 53.923 26.094 54.0376 26.094C54.0376 26.7352 54.0376 27.3793 54.0376 28.0388C53.9378 28.0388 53.8363 28.0388 53.7151 28.0388C53.7151 27.7523 53.7151 27.4627 53.7151 27.1475C53.5381 27.1475 53.3803 27.1475 53.1959 27.1475Z" fill="black"/>
<path d="M38.2991 27.2936C38.2995 26.879 38.2995 26.4895 38.2995 26.0897C38.4227 26.0897 38.5249 26.0897 38.6382 26.0897C38.6382 26.5473 38.6537 26.9986 38.6327 27.4483C38.6191 27.7397 38.4474 27.9765 38.1561 28.0151C37.8046 28.0618 37.4386 28.0682 37.087 28.0254C36.7842 27.9885 36.6122 27.7447 36.6 27.4401C36.5822 26.9984 36.5954 26.5554 36.5954 26.0959C36.6905 26.0959 36.7923 26.0959 36.9308 26.0959C36.9308 26.448 36.929 26.8084 36.9312 27.1688C36.935 27.809 37.5122 28.1375 38.0608 27.7859C38.1877 27.7046 38.2219 27.4782 38.2991 27.2936Z" fill="black"/>
<path d="M49.7328 26.0791C50.0423 26.0914 50.3283 26.0827 50.6078 26.1214C50.9282 26.1657 51.1119 26.379 51.1146 26.6458C51.1174 26.9152 50.9433 27.1476 50.6324 27.1938C50.2583 27.2494 49.8765 27.2532 49.4734 27.2811C49.4734 27.5153 49.4734 27.7679 49.4734 28.0372C49.3418 28.0372 49.2332 28.0372 49.1124 28.0372C49.1124 27.3949 49.1124 26.7578 49.1124 26.0791C49.3073 26.0791 49.5068 26.0791 49.7328 26.0791ZM49.5038 27.0363C49.7963 27.0321 50.0902 27.0438 50.3808 27.0184C50.5863 27.0005 50.759 26.9044 50.7476 26.6492C50.7363 26.3987 50.562 26.3125 50.3548 26.3004C50.065 26.2835 49.7734 26.2962 49.4661 26.2962C49.4661 26.544 49.4661 26.7727 49.5038 27.0363Z" fill="black"/>
<path d="M73.7268 26.304C73.7686 26.2121 73.81 26.0884 73.8524 26.0881C74.3027 26.0846 74.755 26.0794 75.2029 26.1184C75.5429 26.1479 75.7346 26.3663 75.7409 26.6382C75.7475 26.9236 75.5602 27.1544 75.2169 27.2023C74.853 27.2531 74.482 27.254 74.092 27.278C74.092 27.5235 74.092 27.7761 74.092 28.041C73.9679 28.041 73.8651 28.041 73.7268 28.041C73.7268 27.4734 73.7268 26.9015 73.7268 26.304ZM74.984 27.0306C75.2032 26.9809 75.3989 26.9079 75.3726 26.6242C75.3527 26.4096 75.19 26.299 74.8803 26.2948C74.6191 26.2912 74.3578 26.2941 74.1041 26.2941C74.1041 26.5606 74.1041 26.7943 74.1041 27.0373C74.3924 27.0373 74.6649 27.0373 74.984 27.0306Z" fill="black"/>
<path d="M71.0226 27.1673C71.1947 26.8351 71.3528 26.5179 71.5182 26.2046C71.6107 26.0294 71.9127 26.0176 72.0079 26.1895C72.334 26.7784 72.6526 27.3715 72.9726 27.9638C72.9839 27.9848 72.9793 28.0144 72.9814 28.0339C72.7183 28.1201 72.5538 28.0281 72.483 27.7666C72.4134 27.5101 72.2467 27.4203 71.9888 27.4648C71.894 27.4811 71.7913 27.482 71.6967 27.4648C71.3381 27.3995 71.1054 27.5289 71.0161 27.8874C70.9527 28.1419 70.7588 28.0311 70.5773 28.0557C70.7297 27.75 70.8707 27.467 71.0226 27.1673ZM72.0202 26.8447C71.9387 26.6801 71.8572 26.5155 71.7681 26.3358C71.6207 26.6434 71.4797 26.9376 71.338 27.2334C71.6457 27.2334 71.9205 27.2334 72.2127 27.2334C72.1474 27.0998 72.0935 26.9896 72.0202 26.8447Z" fill="black"/>
<path d="M80.8744 26.7625C81.0511 26.5678 81.2121 26.3545 81.4111 26.1862C81.5162 26.0973 81.6877 26.0869 81.8293 26.0411C81.8422 26.0638 81.8551 26.0865 81.868 26.1092C81.6078 26.3919 81.3571 26.6843 81.0838 26.9538C80.9065 27.1287 80.8206 27.3139 80.8495 27.5636C80.8674 27.7188 80.8528 27.8778 80.8528 28.044C80.725 28.044 80.6227 28.044 80.5245 28.044C80.5125 28.0184 80.4965 28.001 80.4993 27.9876C80.632 27.3524 80.3033 26.9152 79.8779 26.5141C79.7511 26.3946 79.6448 26.2533 79.521 26.1129C79.7717 26.0242 79.9509 26.0872 80.0925 26.2931C80.1673 26.402 80.2632 26.4964 80.371 26.6224C80.4901 26.7622 80.5877 26.8769 80.7014 27.0106C80.7682 26.9147 80.8213 26.8386 80.8744 26.7625Z" fill="black"/>
<path d="M34.7579 28.0532C34.5894 28.0764 34.5333 28.0308 34.5366 27.8719C34.5472 27.358 34.5405 26.8437 34.5405 26.3025C34.2573 26.3025 33.9791 26.3025 33.6899 26.3025C33.6899 26.2184 33.6899 26.1611 33.6899 26.0919C34.3715 26.0919 35.0508 26.0919 35.7296 26.0919C35.745 26.286 35.7451 26.2898 35.5875 26.2924C35.3662 26.2961 35.1448 26.2933 34.8838 26.2933C34.8838 26.8119 34.8878 27.3217 34.8793 27.8312C34.8781 27.9057 34.8169 27.9792 34.7579 28.0532Z" fill="black"/>
<path d="M58.5323 26.08C59.1346 26.08 59.7106 26.08 60.2963 26.08C60.3521 26.2082 60.3675 26.2986 60.18 26.2945C59.95 26.2895 59.7198 26.2933 59.4686 26.2933C59.4686 26.8769 59.4686 27.4497 59.4686 28.0379C59.3456 28.0379 59.2436 28.0379 59.1215 28.0379C59.1215 27.4685 59.1215 26.8961 59.1215 26.3047C58.8316 26.3047 58.5608 26.3047 58.2698 26.3047C58.2638 26.2251 58.2592 26.1631 58.2529 26.08C58.3497 26.08 58.4279 26.08 58.5323 26.08Z" fill="black"/>
<path d="M42.8859 26.5608C42.8859 26.3928 42.8859 26.2514 42.8859 26.095C42.9979 26.095 43.1003 26.095 43.218 26.095C43.218 26.7354 43.218 27.3788 43.218 28.0378C43.1205 28.0378 43.0191 28.0378 42.8859 28.0378C42.8859 27.5554 42.8859 27.0714 42.8859 26.5608Z" fill="black"/>
</svg>
