<svg width="20" height="20" fill="none" xmlns="http://www.w3.org/2000/svg"><path d="m12.75 13.917 1.166-1.167-3.083-3.083V5.833H9.166v4.5l3.584 3.584ZM10 18.333a8.115 8.115 0 0 1-3.25-.656 8.415 8.415 0 0 1-2.646-1.781 8.416 8.416 0 0 1-1.781-2.646A8.115 8.115 0 0 1 1.667 10c0-1.153.218-2.236.656-3.25a8.415 8.415 0 0 1 1.781-2.646A8.415 8.415 0 0 1 6.75 2.323 8.115 8.115 0 0 1 10 1.667c1.153 0 2.236.218 3.25.656a8.416 8.416 0 0 1 2.646 1.781 8.415 8.415 0 0 1 1.78 2.646 8.115 8.115 0 0 1 .657 3.25 8.115 8.115 0 0 1-.656 3.25 8.416 8.416 0 0 1-1.781 2.646 8.416 8.416 0 0 1-2.646 1.781 8.115 8.115 0 0 1-3.25.656Zm0-1.666c1.847 0 3.42-.65 4.719-1.948 1.298-1.299 1.947-2.872 1.947-4.719 0-1.847-.649-3.42-1.947-4.719-1.299-1.298-2.872-1.948-4.72-1.948-1.846 0-3.42.65-4.718 1.948C3.982 6.58 3.333 8.153 3.333 10c0 1.847.65 3.42 1.948 4.719C6.58 16.017 8.153 16.667 10 16.667Z" fill="#C00000"/></svg>