<svg width="20" height="20" fill="none" xmlns="http://www.w3.org/2000/svg"><g clip-path="url(#a)"><path d="m.047 20 1.406-5.136A9.89 9.89 0 0 1 .131 9.91C.133 4.446 4.579 0 10.04 0c2.651 0 5.14 1.033 7.011 2.907a9.854 9.854 0 0 1 2.9 7.011c-.002 5.465-4.448 9.91-9.91 9.91a9.916 9.916 0 0 1-4.74-1.206L.047 20Zm5.498-3.172c1.397.829 2.73 1.325 4.493 1.326 4.54 0 8.238-3.695 8.241-8.237a8.235 8.235 0 0 0-8.234-8.244c-4.543 0-8.24 3.695-8.241 8.237 0 1.854.543 3.242 1.455 4.695l-.832 3.04 3.118-.817Zm9.489-4.554c-.062-.103-.227-.165-.475-.289-.247-.124-1.465-.723-1.692-.806-.227-.082-.392-.124-.558.124-.165.248-.64.806-.784.971-.144.165-.29.186-.537.062-.247-.124-1.046-.385-1.991-1.23-.736-.656-1.234-1.467-1.378-1.715-.144-.248-.015-.382.108-.505.112-.111.248-.29.372-.434.126-.144.167-.247.25-.413.083-.165.042-.31-.02-.434-.063-.123-.558-1.343-.764-1.838-.202-.483-.406-.418-.558-.425l-.475-.009a.907.907 0 0 0-.66.31c-.226.249-.866.847-.866 2.066 0 1.22.887 2.397 1.01 2.562.125.165 1.746 2.666 4.23 3.739.591.255 1.053.408 1.412.522.594.188 1.133.161 1.56.098.476-.07 1.465-.6 1.672-1.178.207-.579.207-1.075.144-1.178Z" fill="#A60303"/></g><defs><clipPath id="a"><path fill="#fff" d="M0 0h20v20H0z"/></clipPath></defs></svg>