<svg width="20" height="20" viewBox="0 0 20 20" fill="none" xmlns="http://www.w3.org/2000/svg">
<g clip-path="url(#clip0_12_6)">
<path d="M0.0476074 20L1.45344 14.8642C0.585941 13.3608 0.130107 11.6567 0.130941 9.90917C0.133441 4.44583 4.57927 0 10.0418 0C12.6926 0.000833333 15.1809 1.03333 17.0526 2.90667C18.9234 4.78 19.9534 7.27 19.9526 9.91833C19.9501 15.3825 15.5043 19.8283 10.0418 19.8283C8.38344 19.8275 6.74927 19.4117 5.30177 18.6217L0.0476074 20ZM5.54511 16.8275C6.94177 17.6567 8.27511 18.1533 10.0384 18.1542C14.5784 18.1542 18.2768 14.4592 18.2793 9.91667C18.2809 5.365 14.6001 1.675 10.0451 1.67333C5.50177 1.67333 1.80594 5.36833 1.80427 9.91C1.80344 11.7642 2.34677 13.1525 3.25927 14.605L2.42677 17.645L5.54511 16.8275ZM15.0343 12.2742C14.9726 12.1708 14.8076 12.1092 14.5593 11.985C14.3118 11.8608 13.0943 11.2617 12.8668 11.1792C12.6401 11.0967 12.4751 11.055 12.3093 11.3033C12.1443 11.5508 11.6693 12.1092 11.5251 12.2742C11.3809 12.4392 11.2359 12.46 10.9884 12.3358C10.7409 12.2117 9.94261 11.9508 8.99677 11.1067C8.26094 10.45 7.76344 9.63917 7.61927 9.39083C7.47511 9.14333 7.60427 9.00917 7.72761 8.88583C7.83927 8.775 7.97511 8.59667 8.09927 8.45167C8.22511 8.30833 8.26594 8.205 8.34927 8.03917C8.43177 7.87417 8.39094 7.72917 8.32844 7.605C8.26594 7.48167 7.77094 6.2625 7.56511 5.76667C7.36344 5.28417 7.15927 5.34917 7.00761 5.34167L6.53261 5.33333C6.36761 5.33333 6.09927 5.395 5.87261 5.64333C5.64594 5.89167 5.00594 6.49 5.00594 7.70917C5.00594 8.92833 5.89344 10.1058 6.01677 10.2708C6.14094 10.4358 7.76261 12.9375 10.2468 14.01C10.8376 14.265 11.2993 14.4175 11.6584 14.5317C12.2518 14.72 12.7918 14.6933 13.2184 14.63C13.6943 14.5592 14.6834 14.0308 14.8901 13.4525C15.0968 12.8733 15.0968 12.3775 15.0343 12.2742Z" fill="#EAEAEA"/>
</g>
<defs>
<clipPath id="clip0_12_6">
<rect width="20" height="20" fill="white"/>
</clipPath>
</defs>
</svg>
