<svg width="32" height="32" viewBox="0 0 32 32" fill="none" xmlns="http://www.w3.org/2000/svg">
<rect width="32" height="32" rx="16" fill="white"/>
<path d="M5.98598 22.4348C4.99639 19.972 4.01788 17.5277 3.0326 15.0861C2.962 14.9111 3.00544 14.8388 3.16907 14.7745C3.83359 14.5137 4.49773 14.2513 5.15507 13.9731C5.39718 13.8707 5.50615 13.9175 5.60622 14.1687C6.76589 17.0798 7.93625 19.9865 9.10664 22.8933C9.18954 23.0992 9.28026 23.3046 9.39247 23.4955C9.95988 24.4606 10.8367 24.7831 11.8864 24.3848C12.9263 23.9902 13.9544 23.5643 14.9869 23.1499C15.3648 22.9983 15.3664 22.9942 15.5208 23.3688C15.6975 23.7973 15.8663 24.2291 16.0432 24.6575C16.0998 24.7946 16.1143 24.9006 15.9423 24.9641C14.1439 25.6276 12.4232 26.4982 10.5616 26.9926C10.1322 27.1067 9.69266 27.1826 9.24218 27.1298C8.36142 27.0268 7.82119 26.4651 7.39869 25.7534C6.97024 25.0318 6.72143 24.23 6.39964 23.4608C6.26008 23.1273 6.12987 22.7898 5.98598 22.4348Z" fill="#A60303"/>
<path d="M13.7532 11.8505C14.1063 11.4465 14.5471 11.23 15.0235 11.0493C15.8731 10.7272 16.7093 10.37 17.5531 10.0324C17.6411 9.99724 17.7281 9.9244 17.8444 9.96885C17.7943 10.105 17.6614 10.1244 17.5636 10.1835C16.3861 10.8966 15.4624 11.8301 15.0147 13.1622C14.4284 14.9068 15.0366 16.8571 16.5213 18.0591C17.6217 18.9499 18.8892 19.3794 20.2931 19.4302C20.747 19.4467 21.202 19.4584 21.6549 19.3998C21.6913 19.3951 21.7291 19.3972 21.7492 19.4468C21.7394 19.5397 21.6491 19.5388 21.5873 19.5636C20.4774 20.0093 19.3663 20.4521 18.2558 20.8962C17.6689 21.1308 17.0761 21.0177 16.5062 20.8685C14.265 20.2816 13.0412 18.722 12.5378 16.547C12.2377 15.2508 12.3903 13.9848 13.0461 12.8025C13.2363 12.4596 13.475 12.1528 13.7532 11.8505Z" fill="#A60303"/>
<path d="M27.7295 11.341C28.1429 12.3667 28.5443 13.3742 28.9576 14.3768C29.0397 14.5758 29.0095 14.6755 28.802 14.7518C28.1941 14.975 28.3371 14.993 28.0573 14.4857C26.9957 12.5611 25.9438 10.6311 24.8828 8.70616C24.74 8.44699 24.5737 8.19966 24.405 7.95598C23.827 7.12065 23.0396 6.8303 22.0535 7.06715C20.9176 7.34 19.8089 7.70807 18.6858 8.0259C18.4005 8.10665 18.1135 8.18263 17.8318 8.27449C17.687 8.32169 17.6046 8.28907 17.5501 8.14872C17.2493 7.37444 17.1938 7.57408 17.865 7.29853C19.4861 6.63301 21.1166 5.99059 22.7447 5.34242C23.1851 5.16711 23.6369 5.02738 24.1146 5.00223C24.607 4.97631 24.994 5.17708 25.2928 5.56433C25.6215 5.99039 25.7887 6.49431 25.9852 6.98408C26.565 8.42938 27.143 9.87541 27.7295 11.341Z" fill="black"/>
<path d="M12.7495 5.82732C13.0271 5.71458 13.2834 5.60647 13.543 5.50681C13.6659 5.45965 13.8029 5.36448 13.8844 5.57512C13.9527 5.75155 14.0023 5.8928 13.7695 6.00589C13.1608 6.30161 12.5629 6.61975 11.9605 6.92837C10.9948 7.42304 10.0285 7.91642 9.06354 8.41257C8.9236 8.48453 8.78512 8.56149 8.6543 8.64865C7.93382 9.12872 7.68051 9.74289 7.85484 10.5901C7.9033 10.8255 7.96529 11.0583 8.02589 11.2911C8.0558 11.406 8.00564 11.4628 7.90577 11.5039C7.7987 11.5481 7.72678 11.5259 7.68663 11.4148C7.41277 10.6571 7.02895 9.94008 6.83754 9.15209C6.70772 8.61765 6.85296 8.27835 7.34398 8.02113C7.91153 7.72383 8.5226 7.52497 9.11523 7.28477C10.3182 6.79718 11.5246 6.31803 12.7495 5.82732Z" fill="black"/>
</svg>
